<svg width="11" height="12" viewBox="0 0 11 12" fill="none" xmlns="http://www.w3.org/2000/svg">
<path fill-rule="evenodd" clip-rule="evenodd" d="M5.15414 11.783C5.22169 11.8167 5.29723 11.8339 5.37276 11.8333C5.4483 11.8327 5.52322 11.815 5.59139 11.7807L7.76779 10.6681C8.38497 10.3535 8.86828 10.0017 9.24534 9.59214C10.0652 8.69978 10.5129 7.56089 10.5049 6.38654L10.4791 2.51282C10.4766 2.06665 10.1702 1.66852 9.71698 1.5238L5.66815 0.224745C5.42435 0.145806 5.15721 0.147523 4.91771 0.228749L0.884232 1.57414C0.433475 1.72458 0.132561 2.12557 0.135017 2.57231L0.16081 6.44317C0.168793 7.61924 0.631832 8.75298 1.46518 9.63618C1.84593 10.04 2.33353 10.3867 2.95747 10.6961L5.15414 11.783ZM4.57795 7.23022C4.66884 7.31374 4.78675 7.35492 4.90466 7.35378C5.02257 7.35321 5.13986 7.31088 5.22952 7.22622L7.60797 4.9839C7.78668 4.81516 7.78484 4.54402 7.60429 4.37756C7.42312 4.2111 7.13142 4.21225 6.95272 4.38099L4.8979 6.31785L4.05657 5.54448C3.87541 5.37802 3.58432 5.37974 3.405 5.54848C3.22629 5.71723 3.22814 5.98837 3.4093 6.15483L4.57795 7.23022Z" fill="#57C65C"/>
</svg>
