<svg width="22" height="22" viewBox="0 0 22 22" fill="none" xmlns="http://www.w3.org/2000/svg">
<path d="M12.8648 13.7088L12.8648 13.7088L12.8372 13.6811C12.7935 13.6374 12.7935 13.5666 12.8371 13.523L12.8372 13.523L15.9584 10.4017C16.4791 9.88099 16.4791 9.03671 15.9584 8.51596C15.4376 7.9952 14.5933 7.9952 14.0726 8.51596L10.9514 11.6372C10.9077 11.6809 10.8369 11.6808 10.7932 11.6372L10.7932 11.6372L10.7656 11.6095C10.7219 11.5658 10.7219 11.4951 10.7656 11.4514L14.7154 7.50152C15.2362 6.98076 15.2362 6.13648 14.7154 5.61573C14.1947 5.09497 13.3504 5.09497 12.8296 5.61573L8.87978 9.56557C8.83606 9.60928 8.76525 9.60924 8.72161 9.56559C8.67786 9.52183 8.67795 9.451 8.72156 9.4074L8.72158 9.40737L11.8428 6.28617C12.3635 5.76541 12.3635 4.92113 11.8428 4.40038C11.322 3.87962 10.4778 3.87962 9.957 4.40037L9.95699 4.40038L4.06751 10.2899C3.93828 9.14838 3.81447 7.94002 3.79812 7.78046C3.798 7.77929 3.79789 7.77818 3.79778 7.77712C3.79104 7.32862 3.59917 6.88116 3.22427 6.56165C2.20568 5.69355 0.579471 6.37345 0.545615 7.76172L0.545154 7.78062L0.546264 7.79949C0.631088 9.24152 0.631591 10.5174 0.625836 11.67C0.625332 11.771 0.624776 11.8712 0.624226 11.9705C0.618524 12.9991 0.613309 13.9397 0.670254 14.7988C0.7967 16.7064 1.2336 18.2787 2.67876 19.7239L3.00018 19.4025L2.67877 19.7239C3.67707 20.7222 5.08453 21.3243 6.48588 21.4357C7.88827 21.5472 9.3342 21.1691 10.365 20.1383L17.2013 13.302C17.7221 12.7812 17.7221 11.9369 17.2013 11.4162C16.6806 10.8955 15.8363 10.8954 15.3155 11.4162C15.3155 11.4162 15.3155 11.4162 15.3155 11.4162L13.023 13.7088C12.9793 13.7525 12.9085 13.7524 12.8648 13.7088Z" stroke="white" stroke-width="0.90909"/>
<path d="M3.26431 6.26L4.08744 6.84281L3.97888 5.8401C3.93266 5.41329 3.89181 5.0259 3.86251 4.7452L3.828 4.41272L3.81871 4.32233L3.81764 4.3119C3.81055 3.86387 3.61879 3.4169 3.24416 3.09745C2.22517 2.22855 0.599057 2.90963 0.565531 4.29759L0.565076 4.31642L0.566181 4.33523C0.594776 4.82173 0.61373 5.28924 0.626117 5.73942L0.646165 6.46806L1.29165 6.12944C1.56036 5.98848 1.86254 5.91311 2.17111 5.91311C2.56526 5.91311 2.94771 6.03584 3.26431 6.26Z" stroke="white" stroke-width="0.90909"/>
<path d="M4.26655 9.71928L4.16598 8.77301C4.12748 8.41076 4.09606 8.10757 4.07698 7.92347C4.07049 7.8609 4.06543 7.81208 4.06201 7.77938L4.06021 7.76226L4.05972 7.74506C4.055 7.5809 4.02891 7.42016 3.98322 7.26543L3.9067 7.00632L4.09774 6.81528C4.58149 6.33154 5.27505 5.63793 6.01888 4.89406C7.67973 3.23313 9.59117 1.32158 9.97703 0.93599L4.26655 9.71928ZM4.26655 9.71928L4.93941 9.04637L9.77085 4.21454M4.26655 9.71928L9.77085 4.21454M9.77085 4.21454C9.77091 4.21447 9.77098 4.21441 9.77104 4.21434C10.0447 3.94109 10.3971 3.78024 10.7774 3.75168L10.9455 3.73906L11.0648 3.61983L11.8628 2.82178L11.863 2.8216C12.3832 2.30077 12.3832 1.457 11.863 0.936173L11.8625 0.935626C11.3404 0.414722 10.4972 0.415991 9.97715 0.935878L9.77085 4.21454Z" stroke="white" stroke-width="0.90909"/>
<path d="M12.4219 4.85967L12.5823 5.36819L13.059 5.12942C13.2416 5.03797 13.4407 4.98253 13.6487 4.96736L13.8174 4.95504L13.937 4.83543L14.7355 4.03699C15.256 3.51641 15.2558 2.67211 14.7356 2.15138L14.7351 2.15083C14.2152 1.63217 13.3709 1.62994 12.8497 2.1512L11.6981 3.30276L11.302 3.69886L11.7712 4.00489C12.0684 4.19873 12.3082 4.49887 12.4219 4.85967Z" stroke="white" stroke-width="0.90909"/>
<path d="M20.4141 4.13921H19.2422C18.6676 4.13921 18.2017 4.60506 18.2017 5.17969C18.2017 5.75432 18.6676 6.22017 19.2422 6.22017H20.4141C20.9887 6.22017 21.4545 5.75432 21.4545 5.17969C21.4545 4.60506 20.9887 4.13921 20.4141 4.13921Z" stroke="white" stroke-width="0.90909"/>
<path d="M18.4674 0.850209C18.8737 0.443904 19.5325 0.443847 19.9388 0.850182C19.9388 0.8502 19.9389 0.850218 19.9389 0.850237M18.4674 0.850209L19.6174 2.00025C19.8463 1.77146 19.8463 1.40045 19.6174 1.17162L19.9389 0.850237M18.4674 0.850209L17.2955 2.02208C16.8892 2.42842 16.8892 3.0872 17.2955 3.49354C17.7018 3.89985 18.3607 3.8999 18.767 3.49354C18.767 3.49353 18.767 3.49352 18.767 3.49351L19.9388 2.32172L18.4674 0.850209ZM19.9389 0.850237C20.3452 1.25655 20.3452 1.91535 19.9389 2.32166L19.9389 0.850237Z" stroke="white" stroke-width="0.90909"/>
</svg>
