<svg width="10" height="12" viewBox="0 0 10 12" fill="none" xmlns="http://www.w3.org/2000/svg">
<path fill-rule="evenodd" clip-rule="evenodd" d="M9.20083 1.52506C9.63529 1.66806 9.92885 2.06904 9.92885 2.51522L9.95821 6.38718C9.96408 7.55981 9.53548 8.69812 8.74875 9.59104C8.39061 10.0029 7.92679 10.3518 7.33967 10.6664L5.25541 11.7819C5.19083 11.8162 5.12037 11.8333 5.04992 11.8333C4.97947 11.8333 4.90314 11.8162 4.83856 11.7819L2.73669 10.695C2.1437 10.3861 1.67988 10.0429 1.31587 9.6368C0.51739 8.7559 0.0711827 7.61759 0.0653115 6.44496L0.0418269 2.57184C0.0359558 2.12567 0.329513 1.72583 0.758108 1.57654L4.61546 0.227157C4.84443 0.146503 5.09689 0.146503 5.33174 0.227157L9.20083 1.52506ZM6.41202 7.21717C6.58229 7.05129 6.58229 6.77672 6.41202 6.61084L5.61942 5.83805L6.41202 5.0664C6.58229 4.90052 6.58229 4.63167 6.41202 4.45949C6.24176 4.29361 5.95994 4.29361 5.78968 4.45949L4.99708 5.23228L4.20447 4.45949C4.03421 4.29361 3.75826 4.29361 3.58213 4.45949C3.41186 4.63167 3.41186 4.90052 3.58213 5.0664L4.37473 5.83805L3.58213 6.61084C3.41186 6.77672 3.41186 7.05129 3.58213 7.21717C3.67019 7.30298 3.78175 7.34245 3.8933 7.34245C4.01072 7.34245 4.12227 7.30298 4.20447 7.21717L4.99708 6.44495L5.78968 7.21717C5.87775 7.30298 5.9893 7.34245 6.10085 7.34245C6.2124 7.34245 6.32983 7.30298 6.41202 7.21717Z" fill="#D27070"/>
</svg>
