<svg xmlns="http://www.w3.org/2000/svg" fill="none" viewBox="0 0 48 21">
  <path fill="#fff" d="M2.665 3.867A1.699 1.699 0 0 1 .953 2.155c0-.462.166-.867.499-1.213.346-.347.75-.52 1.213-.52.477 0 .881.173 1.213.52.347.346.52.75.52 1.213 0 .462-.173.867-.52 1.213a1.651 1.651 0 0 1-1.213.499ZM1.278 16V5.167h2.795V16H1.278Zm18.093.303c-2.282 0-4.167-.758-5.654-2.275-1.488-1.516-2.232-3.387-2.232-5.611 0-2.24.744-4.11 2.232-5.612C15.204 1.288 17.088.53 19.372.53c1.372 0 2.636.325 3.791.975 1.17.636 2.08 1.502 2.73 2.6L23.315 5.6a3.933 3.933 0 0 0-1.604-1.582c-.693-.39-1.473-.585-2.34-.585-1.473 0-2.665.463-3.574 1.387-.896.924-1.344 2.123-1.344 3.597 0 1.459.448 2.65 1.344 3.575.91.924 2.101 1.386 3.575 1.386.866 0 1.646-.187 2.34-.563.707-.39 1.242-.917 1.603-1.582l2.578 1.495c-.65 1.098-1.553 1.972-2.708 2.622-1.156.636-2.427.953-3.813.953ZM30.565 7.03c.26-.693.686-1.213 1.279-1.56a3.989 3.989 0 0 1 2.015-.52v3.12c-.853-.101-1.618.072-2.297.52-.665.448-.997 1.192-.997 2.232V16H27.77V5.167h2.795V7.03Zm6.315-3.163a1.699 1.699 0 0 1-1.712-1.712c0-.462.166-.867.498-1.213.347-.347.752-.52 1.214-.52.477 0 .881.173 1.213.52.347.346.52.75.52 1.213 0 .462-.173.867-.52 1.213a1.651 1.651 0 0 1-1.213.499ZM35.492 16V5.167h2.795V16h-2.795Zm11.55-8.147h-2.448v4.507c0 .376.094.65.281.823.188.174.463.275.824.304.36.014.809.007 1.343-.022V16c-1.921.217-3.279.036-4.073-.542-.78-.577-1.17-1.61-1.17-3.098V7.853h-1.885V5.167h1.885V2.978l2.795-.845v3.034h2.448v2.686Z"/>
  <circle cx="19.115" cy="8.496" r="2.973" fill="#C65656"/>
</svg>
