<svg xmlns="http://www.w3.org/2000/svg" fill="none" viewBox="0 0 81 15">
  <path fill="#FFE600" d="M11.199 8.95a.688.688 0 0 0-.2.606l.556 3.075a.675.675 0 0 1-.281.675.688.688 0 0 1-.731.05l-2.768-1.443a.706.706 0 0 0-.313-.082h-.17a.507.507 0 0 0-.168.056l-2.769 1.45a.73.73 0 0 1-.444.07.695.695 0 0 1-.556-.795l.556-3.075a.7.7 0 0 0-.199-.612L1.455 6.738a.675.675 0 0 1-.168-.707.702.702 0 0 1 .556-.468l3.106-.451a.695.695 0 0 0 .55-.38l1.369-2.807a.65.65 0 0 1 .125-.169l.056-.043a.42.42 0 0 1 .1-.082l.069-.025.106-.043h.263a.7.7 0 0 1 .55.375L9.524 4.73c.1.205.294.347.519.381l3.106.45a.708.708 0 0 1 .569.47.679.679 0 0 1-.181.706L11.198 8.95ZM27.699 8.95a.688.688 0 0 0-.2.606l.556 3.075a.675.675 0 0 1-.281.675.688.688 0 0 1-.731.05l-2.768-1.443a.706.706 0 0 0-.313-.082h-.17a.508.508 0 0 0-.168.056l-2.769 1.45a.73.73 0 0 1-.444.07.695.695 0 0 1-.556-.795l.556-3.075a.7.7 0 0 0-.199-.612l-2.257-2.187a.675.675 0 0 1-.168-.707.702.702 0 0 1 .556-.468l3.106-.451a.695.695 0 0 0 .55-.38l1.369-2.807a.651.651 0 0 1 .125-.169l.056-.043a.42.42 0 0 1 .1-.082l.069-.025.106-.043h.263a.7.7 0 0 1 .55.375l1.387 2.793c.1.205.294.347.519.381l3.106.45a.708.708 0 0 1 .569.47.679.679 0 0 1-.181.706L27.698 8.95ZM44.199 8.95a.688.688 0 0 0-.2.606l.556 3.075a.675.675 0 0 1-.281.675.688.688 0 0 1-.731.05l-2.768-1.443a.706.706 0 0 0-.313-.082h-.17a.508.508 0 0 0-.168.056l-2.769 1.45a.73.73 0 0 1-.444.07.695.695 0 0 1-.556-.795l.556-3.075a.7.7 0 0 0-.199-.612l-2.257-2.187a.675.675 0 0 1-.168-.707.702.702 0 0 1 .556-.468l3.106-.451a.695.695 0 0 0 .55-.38l1.369-2.807a.651.651 0 0 1 .125-.169l.056-.043a.42.42 0 0 1 .1-.082l.069-.025.106-.043h.263a.7.7 0 0 1 .55.375l1.387 2.793c.1.205.294.347.519.381l3.106.45a.708.708 0 0 1 .569.47.679.679 0 0 1-.182.706L44.2 8.95ZM60.699 8.95a.688.688 0 0 0-.2.606l.556 3.075a.675.675 0 0 1-.281.675.688.688 0 0 1-.731.05l-2.768-1.443a.706.706 0 0 0-.313-.082h-.17a.508.508 0 0 0-.168.056l-2.769 1.45a.73.73 0 0 1-.444.07.695.695 0 0 1-.556-.795l.556-3.075a.7.7 0 0 0-.199-.612l-2.257-2.187a.675.675 0 0 1-.168-.707.702.702 0 0 1 .556-.468l3.106-.451a.695.695 0 0 0 .55-.38l1.369-2.807a.651.651 0 0 1 .125-.169l.056-.043a.42.42 0 0 1 .1-.082l.069-.025.106-.043h.263a.7.7 0 0 1 .55.375l1.387 2.793c.1.205.294.347.519.381l3.106.45a.708.708 0 0 1 .569.47.679.679 0 0 1-.182.706L60.7 8.95Z"/>
  <path fill="#191919" d="M77.199 8.95a.688.688 0 0 0-.2.606l.556 3.075a.675.675 0 0 1-.281.675.688.688 0 0 1-.731.05l-2.768-1.443a.706.706 0 0 0-.313-.082h-.17a.508.508 0 0 0-.168.056l-2.769 1.45c-.137.07-.292.094-.444.07a.695.695 0 0 1-.556-.795l.556-3.075a.7.7 0 0 0-.199-.612l-2.257-2.187a.675.675 0 0 1-.168-.707.702.702 0 0 1 .556-.468l3.106-.451a.695.695 0 0 0 .55-.38l1.369-2.807a.651.651 0 0 1 .125-.169l.056-.043a.42.42 0 0 1 .1-.082l.069-.025.106-.043h.263a.7.7 0 0 1 .55.375l1.387 2.793c.1.205.294.347.519.381l3.106.45a.708.708 0 0 1 .569.47.679.679 0 0 1-.181.706L77.199 8.95Z"/>
  <mask id="a" width="13" height="13" x="67" y="1" maskUnits="userSpaceOnUse" style="mask-type:alpha">
    <path fill="#191919" d="M77.2 8.95a.688.688 0 0 0-.2.606l.555 3.075a.675.675 0 0 1-.28.675.688.688 0 0 1-.732.05l-2.768-1.443a.706.706 0 0 0-.313-.082h-.17a.508.508 0 0 0-.168.056l-2.769 1.45c-.137.07-.292.094-.443.07a.695.695 0 0 1-.557-.795l.557-3.075a.7.7 0 0 0-.2-.612l-2.257-2.187a.675.675 0 0 1-.168-.707.702.702 0 0 1 .556-.468l3.106-.451a.695.695 0 0 0 .55-.38l1.369-2.807a.651.651 0 0 1 .125-.169l.056-.043a.418.418 0 0 1 .1-.082l.069-.025.106-.043h.263a.7.7 0 0 1 .55.375l1.387 2.793c.1.205.294.347.519.381l3.106.45a.708.708 0 0 1 .569.47.679.679 0 0 1-.181.706L77.199 8.95Z"/>
  </mask>
  <g mask="url(#a)">
    <path fill="#FFE500" d="M66 1h7v13h-7z"/>
  </g>
</svg>
