<svg xmlns="http://www.w3.org/2000/svg" fill="none" viewBox="0 0 13 13">
  <path fill="#FFE600" d="M10.199 7.95a.688.688 0 0 0-.2.606l.556 3.075a.675.675 0 0 1-.281.675.688.688 0 0 1-.731.05l-2.768-1.443a.706.706 0 0 0-.313-.082h-.17a.507.507 0 0 0-.168.056l-2.769 1.45a.73.73 0 0 1-.444.07.695.695 0 0 1-.556-.795l.556-3.075a.7.7 0 0 0-.199-.612L.455 5.738a.675.675 0 0 1-.168-.707.702.702 0 0 1 .556-.468l3.106-.451a.695.695 0 0 0 .55-.38L5.868.924a.65.65 0 0 1 .125-.169l.056-.043a.42.42 0 0 1 .1-.082l.069-.025.106-.043h.263a.7.7 0 0 1 .55.375L8.524 3.73c.1.205.294.347.519.381l3.106.45a.708.708 0 0 1 .569.47.679.679 0 0 1-.181.706L10.198 7.95Z"/>
</svg>
